<svg width="84" height="84" viewBox="0 0 84 84" fill="none" xmlns="http://www.w3.org/2000/svg">
    <path d="M83.636 60.7739C81.3071 64.6199 73.9903 65.7247 68.1741 65.6232C58.1082 65.45 48.5225 61.4428 45.9115 59.7169C43.3006 57.991 42.0161 56.498 42.2201 56.074C42.4242 55.65 43.4746 56.3666 43.4746 56.3666C43.4746 56.3666 45.9836 57.8417 46.4217 57.3102C46.8599 56.7787 45.5754 56.1397 45.5754 56.1397C45.5754 56.1397 41.776 53.7509 42.2381 53.0103C42.6463 52.3475 43.9308 53.4403 43.9368 53.4463C43.9428 53.4523 46.5658 55.3573 47.166 54.7721C47.5742 54.372 45.7555 53.2791 45.7555 53.2791C45.7555 53.2791 42.3102 51.3621 42.9044 50.532C43.3726 49.8631 44.363 50.5797 45.1613 51.2367C45.9596 51.8936 47.7783 53.0701 48.0184 52.5565C48.2584 52.0429 48.0184 52.234 46.7279 51.0097C45.4374 49.7855 44.9692 49.3853 45.2273 48.8718C45.6054 48.1073 46.4277 48.8718 46.4277 48.8718C46.4277 48.8718 49.735 51.8996 50.6954 52.5445C51.6557 53.1895 51.6377 52.1325 51.6497 51.3979C51.6618 50.6634 51.2716 48.8359 51.7818 48.7463C52.9042 48.5433 52.8382 50.1498 54.2307 51.8936C55.6233 53.6374 59.9029 55.435 66.8355 55.7097C73.1079 56.0501 80.2927 53.2552 83.8881 49.7795C83.8776 49.7328 83.8579 49.6887 83.8301 49.6497C83.8023 49.6108 83.7669 49.5777 83.726 49.5526C83.3959 49.236 82.9337 49.4033 82.6036 49.7138C81.7078 50.5372 80.7116 51.2455 79.6384 51.8219C80.0876 50.8749 80.4008 49.8697 80.5688 48.8359C81.169 44.8586 79.3683 42.1294 77.0695 40.069C73.9062 37.1905 69.9207 35.5244 70.2088 33.5417C70.3409 32.616 71.3313 31.971 72.7958 32.18C74.4645 32.4189 75.7309 33.6073 77.0395 34.2702C77.609 34.6031 78.2576 34.7784 78.9182 34.7779C79.41 34.7794 79.8974 34.6846 80.3524 34.4988C80.8074 34.3129 81.2212 34.0398 81.5701 33.6948C81.919 33.3499 82.1962 32.94 82.3859 32.4884C82.5756 32.0369 82.674 31.5526 82.6756 31.0633C82.6747 30.7611 82.6364 30.4603 82.5616 30.1675C82.0634 27.4442 77.9818 25.3541 74.0683 24.7927C67.7839 23.8909 62.1237 26.8829 61.2714 32.7474C60.4491 38.4208 65.0349 41.4068 68.3661 43.8135C70.2989 45.2288 71.8715 46.3934 71.6494 47.8983C71.4753 49.0927 70.2268 49.8213 68.4742 49.5705C66.7215 49.3197 65.473 48.1432 64.2726 47.3549C63.8733 47.0412 63.4159 46.8088 62.9264 46.671C62.4369 46.5332 61.9249 46.4926 61.4196 46.5517C60.9144 46.6107 60.4258 46.7682 59.9817 47.0152C59.5376 47.2621 59.1468 47.5937 58.8315 47.9909C58.5162 48.3881 58.2826 48.8432 58.1441 49.3303C58.0056 49.8173 57.9649 50.3267 58.0242 50.8294C58.0836 51.3321 58.2419 51.8183 58.4901 52.2601C58.7383 52.7019 59.0715 53.0908 59.4707 53.4045C59.7375 53.6709 60.0245 53.9164 60.3291 54.1391C58.9092 53.811 57.5459 53.2756 56.2835 52.5505V51.6129L56.1034 32.61L60.3051 32.5742H60.4251C60.6039 31.2492 61.0562 29.9753 61.7534 28.8325C62.4506 27.6897 63.3778 26.7027 64.4766 25.9333L64.6567 25.8079C64.4035 25.5337 64.1076 25.3018 63.7804 25.1211C62.67 24.4881 61.8056 24.5239 60.233 24.5239L42.8264 24.6852C42.3462 24.6852 41.914 24.6852 41.5179 24.6852H41.4578C41.0122 24.6842 40.5697 24.7589 40.1493 24.9062C39.9404 24.9617 39.7389 25.0419 39.5491 25.145C38.8829 25.4812 38.3243 25.9958 37.9363 26.631C37.5483 27.2661 37.3463 27.9964 37.3532 28.7396C37.36 29.4829 37.5754 30.2094 37.9751 30.8373C38.3748 31.4652 38.9428 31.9696 39.6151 32.2935L39.8672 32.4129C39.9608 32.455 40.0571 32.4909 40.1553 32.5204C40.566 32.655 40.9955 32.7236 41.4278 32.7235H41.5479C41.95 32.7235 42.3822 32.7235 42.8744 32.7235L47.076 32.6817L47.2201 48.4776L46.9319 48.2089C46.7258 48.0225 46.4822 47.8819 46.2173 47.7965C45.9523 47.711 45.6722 47.6826 45.3954 47.7132C45.1826 47.7598 44.9838 47.8553 44.8149 47.9922C44.646 48.1292 44.5118 48.3036 44.423 48.5015C44.3163 48.6913 44.2602 48.9051 44.2602 49.1226C44.2602 49.34 44.3163 49.5539 44.423 49.7437C44.039 49.5075 43.5879 49.4026 43.1385 49.4451C42.9425 49.4708 42.754 49.5373 42.5855 49.6402C42.4169 49.7431 42.272 49.8801 42.1601 50.0423C42.0602 50.1838 41.9923 50.3451 41.9613 50.5153C41.9302 50.6854 41.9366 50.8602 41.98 51.0276C42.0237 51.2056 42.0967 51.3751 42.1961 51.5293L35.1554 53.2612L33.889 48.173L38.3787 47.0682C39.0389 46.907 39.5791 46.7636 40.1013 46.5964H40.1794L40.3654 46.5307L40.5935 46.4292C41.0055 46.2611 41.3761 46.0065 41.6799 45.6827C41.7159 45.6469 41.74 45.6051 41.776 45.5633C42.2643 45.0311 42.5859 44.3688 42.7014 43.6574C42.8169 42.946 42.7213 42.2166 42.4263 41.5585C42.1312 40.9005 41.6496 40.3423 41.0405 39.9526C40.4313 39.5628 39.7211 39.3584 38.9969 39.3643C38.6331 39.364 38.2712 39.4163 37.9225 39.5196C37.5143 39.5973 37.0702 39.7048 36.572 39.8302L32.0823 40.929L31.2119 37.1189L37.5143 35.5662C39.0449 35.1899 40.0953 34.9331 40.8156 34.1508C40.9769 33.9687 41.1159 33.7682 41.2298 33.5536C40.5537 33.5299 39.8904 33.3643 39.2831 33.0678C38.6759 32.7712 38.1384 32.3504 37.7061 31.8328C37.2737 31.3152 36.9561 30.7125 36.7741 30.0643C36.5921 29.4161 36.5498 28.7369 36.65 28.0713L35.7016 28.2923L25.2096 30.8781C22.2445 31.6067 21.4222 32.9683 22.1545 35.9185L27.6466 58.0149C25.6178 59.0003 21.6443 59.5795 16.1762 58.9166C15.2666 58.787 14.3649 58.6076 13.4752 58.3792L13.4391 46.895C13.4391 46.895 14.2615 46.9428 15.2398 46.9368C18.127 46.9831 20.9911 46.4193 23.643 45.2826L21.3622 36.0917C20.93 34.3538 21.008 33.1057 21.6023 32.1143C22.1965 31.123 23.2829 30.484 25.0236 30.054L29.0991 29.0507C28.1924 27.4705 26.8869 26.1531 25.3117 25.2286C21.9144 23.1802 17.7008 22.8398 14.1474 22.8398C10.8642 22.8398 8.29517 23.1982 6.71057 23.8013C3.60138 24.9838 3.60138 27.1098 3.60138 29.0686L3.69741 53.5538C2.8376 52.8286 2.07146 52.0001 1.41654 51.0874C1.35207 50.9875 1.26831 50.9014 1.17011 50.8341C1.07191 50.7667 0.961245 50.7194 0.84453 50.695C0.727815 50.6705 0.60738 50.6694 0.490222 50.6916C0.373064 50.7139 0.261518 50.7591 0.162062 50.8246C0.101351 50.8643 0.0467605 50.9126 0 50.9679C1.30054 52.6412 2.85589 54.1021 4.60976 55.2976C5.22157 55.8578 5.92624 56.3084 6.69256 56.6294C9.55668 58.3162 12.7368 59.4034 16.0381 59.8244C22.9708 60.6664 27.5505 59.5795 29.2432 58.0746C30.9358 56.5697 31.0919 54.9453 32.1843 55.3454C32.6765 55.5126 31.9862 57.2684 31.8782 58.0029C31.7701 58.7375 31.5781 59.7945 32.6465 59.2929C33.7149 58.7912 37.5083 56.3069 37.5083 56.3069C37.5083 56.3069 38.4687 55.7097 38.7088 56.5398C38.8529 57.0056 38.4387 57.3221 37.4243 58.0208H37.3643L36.8481 58.3792C35.3895 59.3944 35.1494 59.1436 35.3055 59.7109C35.4616 60.2783 37.4783 59.3825 38.3787 58.8569C39.279 58.3314 40.3894 57.7879 40.7436 58.5225C41.1997 59.4601 37.4423 60.8098 37.4423 60.8098C37.4423 60.8098 35.4496 61.5981 35.7917 62.0639C36.2899 62.7387 39.225 61.2756 39.237 61.2696C39.249 61.2636 40.7016 60.3858 40.9957 61.1143C41.3378 61.9504 37.1542 63.6823 37.1542 63.6823C37.1542 63.6823 35.7677 64.0824 36.1218 64.6796C36.4759 65.2768 39.225 64.2138 39.225 64.2138C39.225 64.2138 40.3894 63.6704 40.5215 64.1302C40.6535 64.59 39.129 65.874 36.2359 67.152C33.3427 68.43 24.0392 70.8606 13.9613 69.4035C8.13311 68.5554 3.30726 65.3963 1.53659 62.1714L1.42855 62.2251C1.32273 62.2908 1.232 62.378 1.16228 62.4809C1.09256 62.5838 1.04541 62.7002 1.02389 62.8225C1.00238 62.9447 1.00698 63.0701 1.0374 63.1905C1.06782 63.3108 1.12338 63.4235 1.20046 63.521C3.32527 66.7937 8.05508 69.3437 13.8473 70.3411C16.1184 70.7385 18.42 70.9383 20.7259 70.9383C28.2228 70.9383 34.4592 69.0153 36.65 68.0538C41.2598 66.0173 41.6199 64.6199 41.4518 63.9689C41.4089 63.8146 41.333 63.6712 41.2295 63.5486C41.1259 63.426 40.997 63.327 40.8516 63.2583C40.7351 63.2072 40.6118 63.173 40.4855 63.1568C42.3702 61.9624 42.0701 61.2338 41.92 60.8695C41.8487 60.6892 41.7379 60.5271 41.5957 60.3948C41.4534 60.2626 41.2833 60.1636 41.0977 60.1051H41.0377C41.2473 59.9363 41.4277 59.7346 41.5719 59.5079L43.5526 59.0182C44.1832 59.528 44.8404 60.0045 45.5214 60.4455C48.6066 62.47 58.4383 66.3159 68.2281 66.4891H69.0264C75.815 66.4891 81.5172 65.014 83.816 61.9743C83.8881 61.8856 83.9408 61.7829 83.9709 61.6728C84.001 61.5627 84.0079 61.4476 83.9909 61.3348C83.974 61.2219 83.9337 61.1138 83.8726 61.0173C83.8115 60.9207 83.7309 60.8379 83.636 60.7739ZM15.0898 31.0573C18.259 31.0573 20.4558 32.3353 20.4918 35.1601C20.4918 38.2655 17.9469 39.4718 14.9397 39.4898C14.4204 39.5061 13.9007 39.4821 13.3851 39.4181L13.3371 31.2066C13.9179 31.1229 14.5031 31.0731 15.0898 31.0573Z" fill="#0BBBEF"/>
    <path d="M73.9842 0.00298619H11.7104C10.5757 -0.027025 9.44641 0.16943 8.38922 0.580756C7.33204 0.992082 6.36837 1.60995 5.55511 2.39788C4.74185 3.18582 4.09546 4.12786 3.6541 5.1684C3.21274 6.20895 2.98535 7.32692 2.98535 8.45634C2.98535 9.58575 3.21274 10.7037 3.6541 11.7443C4.09546 12.7848 4.74185 13.7269 5.55511 14.5148C6.36837 15.3027 7.33204 15.9206 8.38922 16.3319C9.44641 16.7432 10.5757 16.9397 11.7104 16.9097H73.9842C76.1985 16.8511 78.3023 15.9348 79.8476 14.3559C81.3929 12.777 82.2576 10.6602 82.2576 8.45634C82.2576 6.25249 81.3929 4.13571 79.8476 2.55678C78.3023 0.977859 76.1985 0.0615477 73.9842 0.00298619Z" fill="#F7A600"/>
    <path d="M10.1313 75.8464C9.44974 75.4847 8.68897 75.296 7.91649 75.297C7.14492 75.2914 6.38396 75.476 5.70164 75.8345C5.04505 76.1847 4.49555 76.7046 4.11104 77.3394C3.72727 78.0068 3.52539 78.7623 3.52539 79.5311C3.52539 80.3 3.72727 81.0555 4.11104 81.7229C4.48933 82.3636 5.03755 82.8884 5.69564 83.2397C6.38199 83.599 7.14701 83.7836 7.92249 83.7772C8.68878 83.7826 9.44485 83.6023 10.1253 83.2517C10.7875 82.9076 11.3419 82.3891 11.728 81.7527C12.1094 81.0835 12.3099 80.3273 12.3099 79.558C12.3099 78.7887 12.1094 78.0325 11.728 77.3633C11.3456 76.7215 10.7933 76.1968 10.1313 75.8464ZM9.00291 81.5676C8.66471 81.759 8.28157 81.8579 7.89248 81.8542C7.50077 81.8575 7.11532 81.7565 6.77606 81.5616C6.44962 81.362 6.18239 81.0796 6.00176 80.7435C5.80036 80.3775 5.697 79.9662 5.70164 79.5491C5.70423 79.132 5.80932 78.722 6.00776 78.3547C6.19901 78.0144 6.47894 77.7318 6.81807 77.5365C7.15899 77.3464 7.54369 77.2476 7.9345 77.2498C8.32672 77.2487 8.71214 77.3518 9.05093 77.5484C9.39133 77.7428 9.67001 78.0283 9.85523 78.3726C10.0505 78.7472 10.1523 79.1629 10.1523 79.5849C10.1523 80.0068 10.0505 80.4226 9.85523 80.7972C9.6448 81.1246 9.35064 81.3905 9.00291 81.5676Z" fill="#F7A600"/>
    <path d="M19.2072 72.6931C18.8735 72.5285 18.5053 72.4446 18.1328 72.4483C17.2713 72.3951 16.4193 72.6515 15.7319 73.1709C15.4513 73.4031 15.2276 73.6959 15.0779 74.0271C14.9281 74.3582 14.8562 74.719 14.8676 75.0819V75.6134H14.1293C13.8642 75.6057 13.6063 75.6998 13.409 75.8762C13.312 75.9635 13.235 76.0706 13.1832 76.1901C13.1314 76.3096 13.1061 76.4388 13.1089 76.569C13.1045 76.6987 13.1286 76.8279 13.1794 76.9475C13.2301 77.0671 13.3065 77.1743 13.403 77.2617C13.6005 77.4423 13.8612 77.5387 14.1293 77.5305H14.8196V82.6007C14.8155 82.7394 14.8407 82.8775 14.8934 83.0061C14.9461 83.1346 15.0252 83.2508 15.1257 83.3472C15.2273 83.4475 15.3483 83.5262 15.4814 83.5786C15.6145 83.6309 15.7569 83.6558 15.9 83.6517C16.1876 83.6582 16.4661 83.5508 16.6743 83.3531C16.7755 83.2571 16.8555 83.1411 16.9092 83.0126C16.963 82.884 16.9893 82.7458 16.9864 82.6066V77.5364H17.8027C18.0688 77.5438 18.3273 77.4473 18.523 77.2677C18.6165 77.1785 18.6909 77.0714 18.7417 76.9529C18.7925 76.8343 18.8187 76.7068 18.8187 76.5779C18.8187 76.449 18.7925 76.3215 18.7417 76.203C18.6909 76.0844 18.6165 75.9773 18.523 75.8882C18.3241 75.7091 18.0649 75.6111 17.7967 75.6134H17.0044V75.064C17.003 74.8698 17.0711 74.6814 17.1965 74.5325C17.2723 74.4514 17.3659 74.3888 17.47 74.3495C17.5741 74.3101 17.6859 74.2951 17.7967 74.3056C17.9991 74.3136 18.2001 74.3416 18.3969 74.3892L18.571 74.419C18.7194 74.454 18.8745 74.4498 19.0208 74.4069C19.1672 74.3639 19.2997 74.2837 19.4053 74.1742C19.4921 74.0851 19.5598 73.9792 19.6042 73.8632C19.6486 73.7472 19.6687 73.6234 19.6634 73.4994C19.6686 73.3297 19.6236 73.1623 19.534 73.0179C19.4443 72.8735 19.314 72.7585 19.1592 72.6872" fill="#F7A600"/>
    <path d="M33.5469 73.3679C33.4463 73.2703 33.3269 73.1941 33.1959 73.1438C33.0648 73.0935 32.9249 73.0702 32.7846 73.0752C32.6467 73.0683 32.5089 73.0908 32.3805 73.1413C32.2522 73.1918 32.1361 73.269 32.0403 73.3679C31.8548 73.5742 31.756 73.8436 31.7642 74.1203V79.4533C31.7727 79.8613 31.6643 80.2633 31.4518 80.6122C31.2392 80.9612 30.9312 81.2428 30.5637 81.4241C30.192 81.6121 29.7803 81.7084 29.3633 81.7048C28.9719 81.7025 28.5868 81.6062 28.2408 81.4241C27.8868 81.2424 27.5913 80.965 27.3885 80.6238C27.1783 80.2612 27.0723 79.848 27.0824 79.4294V74.0905C27.0853 73.9493 27.0579 73.8092 27.002 73.6794C26.9461 73.5496 26.863 73.4332 26.7583 73.338C26.5546 73.1448 26.2834 73.0377 26.002 73.0394C25.7027 73.0323 25.4116 73.1366 25.1857 73.332C25.0792 73.4262 24.9945 73.5423 24.9375 73.6722C24.8805 73.8021 24.8526 73.9428 24.8555 74.0845V79.4235C24.8384 80.206 25.0311 80.979 25.4138 81.663C25.7868 82.3195 26.3408 82.8562 27.0104 83.2097C27.7271 83.5876 28.5283 83.7786 29.3393 83.7651C30.1406 83.7801 30.933 83.5954 31.6441 83.2276C32.3099 82.8771 32.8632 82.3473 33.2407 81.6988C33.6394 81.0195 33.8468 80.2459 33.841 79.4593V74.1263C33.8478 73.9879 33.8257 73.8496 33.7761 73.7201C33.7265 73.5905 33.6505 73.4727 33.5529 73.3738L33.5469 73.3679Z" fill="#F7A600"/>
    <path d="M40.3714 79.2404L42.6163 77.3055C42.7433 77.2177 42.8484 77.1021 42.9233 76.9674C42.9983 76.8328 43.0411 76.6828 43.0484 76.5291C43.0436 76.4044 43.0135 76.2818 42.9599 76.1689C42.9062 76.056 42.8302 75.9551 42.7363 75.8722C42.643 75.7734 42.5306 75.6944 42.4058 75.64C42.2809 75.5856 42.1463 75.5569 42.01 75.5557C41.8649 75.5535 41.7207 75.5798 41.5858 75.6331C41.4509 75.6864 41.3279 75.7656 41.2237 75.8662L38.1205 78.685V74.0866C38.1231 73.948 38.0973 73.8103 38.0447 73.682C37.992 73.5537 37.9137 73.4373 37.8144 73.3401C37.7122 73.2406 37.5911 73.1624 37.4581 73.1101C37.3252 73.0578 37.1831 73.0325 37.0401 73.0355C36.8985 73.0318 36.7576 73.0563 36.6257 73.1076C36.4937 73.1589 36.3734 73.2359 36.2718 73.3341C36.1704 73.4303 36.0898 73.5462 36.0351 73.6746C35.9804 73.803 35.9527 73.9412 35.9537 74.0806V82.6683C35.9489 82.8081 35.9736 82.9473 36.0264 83.077C36.0791 83.2066 36.1586 83.3237 36.2598 83.4208C36.3623 83.5195 36.4837 83.5967 36.6166 83.648C36.7496 83.6993 36.8916 83.7236 37.0341 83.7194C37.1757 83.7231 37.3167 83.6986 37.4486 83.6473C37.5805 83.596 37.7008 83.519 37.8024 83.4208C37.9044 83.325 37.9854 83.2092 38.0401 83.0807C38.0949 82.9523 38.1223 82.8139 38.1205 82.6743V81.2231L38.7208 80.6976L41.4158 83.379C41.5165 83.4882 41.639 83.5754 41.7754 83.6351C41.9118 83.6947 42.0591 83.7255 42.2081 83.7254C42.4828 83.7221 42.7471 83.6204 42.9524 83.4387C43.0655 83.3538 43.157 83.2436 43.2195 83.117C43.2821 82.9905 43.3139 82.8511 43.3125 82.7101C43.311 82.5659 43.2805 82.4234 43.2227 82.2911C43.165 82.1588 43.0813 82.0394 42.9764 81.9398L40.3714 79.2404Z" fill="#F7A600"/>
    <path d="M58.3603 75.4597C58.2176 75.4549 58.0755 75.4788 57.9424 75.5301C57.8093 75.5815 57.6881 75.6591 57.586 75.7583C57.4495 75.8853 57.3535 76.0493 57.3099 76.2301C57.0213 76.021 56.7065 75.8503 56.3735 75.7225C55.9074 75.5387 55.4103 75.4454 54.909 75.4478C54.2071 75.4363 53.5162 75.6227 52.9162 75.9852C52.3101 76.3494 51.816 76.872 51.4877 77.4961C51.1388 78.1721 50.9596 78.9221 50.9655 79.6819C50.9529 80.4406 51.1325 81.1902 51.4877 81.8617C51.8175 82.4889 52.3146 83.0136 52.9245 83.3781C53.5344 83.7426 54.2335 83.9329 54.945 83.928C55.4541 83.9275 55.9574 83.8196 56.4215 83.6115C56.7449 83.4675 57.046 83.2785 57.3159 83.0501C57.3645 83.2157 57.4555 83.3659 57.58 83.486C57.681 83.5851 57.8012 83.6627 57.9332 83.714C58.0653 83.7653 58.2065 83.7894 58.3483 83.7846C58.4908 83.7888 58.6328 83.7645 58.7658 83.7133C58.8988 83.662 59.0201 83.5847 59.1226 83.486C59.2238 83.39 59.3038 83.274 59.3576 83.1455C59.4113 83.017 59.4376 82.8787 59.4347 82.7396V76.5048C59.4393 76.3642 59.4144 76.2241 59.3617 76.0936C59.309 75.963 59.2296 75.8448 59.1286 75.7464C58.9187 75.552 58.6409 75.447 58.3543 75.4537L58.3603 75.4597ZM57.3279 79.6938C57.3481 80.3032 57.1333 80.8971 56.7277 81.3541C56.5385 81.5645 56.3061 81.7321 56.0461 81.8455C55.7862 81.9588 55.5048 82.0153 55.2211 82.011C54.9324 82.0192 54.6453 81.9647 54.3799 81.8512C54.1146 81.7378 53.8772 81.5681 53.6845 81.3541C53.2984 80.8838 53.0874 80.2951 53.0874 79.6879C53.0874 79.0806 53.2984 78.492 53.6845 78.0217C53.8743 77.8073 54.1094 77.6372 54.373 77.5237C54.6365 77.4101 54.922 77.3558 55.2091 77.3648C55.4994 77.3556 55.7881 77.4102 56.0548 77.5248C56.3214 77.6394 56.5594 77.8111 56.7517 78.0277C57.1603 78.4876 57.3752 79.0864 57.3519 79.6998" fill="#F7A600"/>
    <path d="M62.2324 75.6136C62.0907 75.6099 61.9498 75.6345 61.8178 75.6857C61.6858 75.737 61.5654 75.814 61.4638 75.9122C61.3626 76.0083 61.2825 76.1243 61.2287 76.2528C61.175 76.3813 61.1487 76.5196 61.1516 76.6587V82.7502C61.1487 82.8893 61.175 83.0276 61.2287 83.1561C61.2825 83.2846 61.3626 83.4006 61.4638 83.4967C61.5652 83.5973 61.6863 83.6762 61.8195 83.7286C61.9527 83.7809 62.0952 83.8057 62.2384 83.8013C62.38 83.805 62.521 83.7804 62.653 83.7292C62.785 83.6779 62.9053 83.6009 63.0069 83.5027C63.1091 83.4073 63.1898 83.2914 63.2436 83.1627C63.2974 83.034 63.3232 82.8955 63.3192 82.7562V76.6707C63.3229 76.5305 63.297 76.3911 63.2432 76.2615C63.1895 76.1319 63.109 76.015 63.0069 75.9182C62.7989 75.7195 62.5207 75.6101 62.2324 75.6136Z" fill="#F7A600"/>
    <path d="M71.9673 76.444C71.5351 75.811 70.7668 75.4826 69.6384 75.4826C69.0927 75.4775 68.555 75.6133 68.0778 75.8767C67.7524 76.056 67.4535 76.2791 67.1894 76.5396C67.1609 76.3123 67.0549 76.1015 66.8893 75.9424C66.7864 75.8443 66.665 75.7674 66.5322 75.7161C66.3993 75.6649 66.2575 75.6403 66.115 75.6438C65.9738 75.6393 65.8332 75.6629 65.7012 75.7131C65.5693 75.7634 65.4488 75.8393 65.3467 75.9364C65.2447 76.0322 65.1638 76.148 65.109 76.2765C65.0542 76.405 65.0269 76.5434 65.0286 76.6829V82.7744C65.0253 82.913 65.0508 83.0509 65.1035 83.1793C65.1562 83.3078 65.2349 83.424 65.3347 83.5209C65.4372 83.6216 65.5593 83.7006 65.6934 83.7529C65.8275 83.8053 65.971 83.83 66.115 83.8254C66.2575 83.8289 66.3993 83.8044 66.5322 83.7531C66.665 83.7019 66.7864 83.625 66.8893 83.5268C66.9905 83.4308 67.0706 83.3148 67.1243 83.1863C67.178 83.0577 67.2043 82.9195 67.2014 82.7803V79.006C67.1946 78.7942 67.2334 78.5834 67.3152 78.3877C67.397 78.192 67.5199 78.0159 67.6756 77.8714C67.8533 77.7145 68.0603 77.5942 68.2849 77.5174C68.5095 77.4405 68.7471 77.4086 68.9841 77.4235C69.1891 77.401 69.3965 77.426 69.5901 77.4964C69.7838 77.5669 69.9585 77.6809 70.1005 77.8296C70.3366 78.1819 70.4505 78.6013 70.4247 79.024V82.7983C70.4214 82.9369 70.4469 83.0748 70.4996 83.2032C70.5522 83.3317 70.6309 83.4479 70.7308 83.5448C70.8324 83.6451 70.9534 83.7238 71.0865 83.7761C71.2196 83.8285 71.362 83.8534 71.5051 83.8493C71.6476 83.8528 71.7893 83.8282 71.9222 83.777C72.0551 83.7257 72.1765 83.6488 72.2794 83.5507C72.3806 83.4546 72.4606 83.3387 72.5144 83.2101C72.5681 83.0816 72.5944 82.9434 72.5915 82.8042V79.0299C72.6484 78.1377 72.4397 77.2486 71.9913 76.4739L71.9673 76.444Z" fill="#F7A600"/>
    <path d="M81.6314 77.568C81.2653 76.9522 80.7466 76.4402 80.1248 76.081C79.5131 75.7173 78.8146 75.5234 78.102 75.5196C77.3875 75.5159 76.6843 75.697 76.0612 76.0451C75.4152 76.3981 74.881 76.9235 74.5187 77.562C74.1156 78.2613 73.9083 79.0552 73.9184 79.8612C73.9074 80.6018 74.096 81.3318 74.4646 81.9753C74.8337 82.6073 75.3747 83.1227 76.0252 83.4623C76.7554 83.8312 77.5654 84.0158 78.3841 83.9998C78.8993 83.9994 79.4113 83.9208 79.9027 83.7669C80.334 83.637 80.7399 83.4351 81.1032 83.1697C81.2477 83.0805 81.3685 82.958 81.4552 82.8124C81.542 82.6668 81.5921 82.5026 81.6014 82.3336C81.6024 82.2156 81.5784 82.0988 81.5308 81.9907C81.4832 81.8826 81.4131 81.7858 81.3253 81.7066C81.1466 81.5351 80.9072 81.4407 80.659 81.4438C80.4503 81.4486 80.2452 81.4996 80.0588 81.5931L79.7647 81.7603C79.5972 81.8571 79.4175 81.9314 79.2305 81.9813C78.9164 82.0579 78.5933 82.092 78.2701 82.0828C77.7581 82.0824 77.2597 81.9192 76.8475 81.617C76.4788 81.3454 76.2124 80.9584 76.0913 80.5182H81.0612C81.3311 80.5239 81.5945 80.4351 81.8054 80.2673C81.9139 80.1876 82.0028 80.0843 82.0652 79.9653C82.1276 79.8463 82.1619 79.7147 82.1656 79.5805C82.17 78.8667 81.9746 78.1657 81.6014 77.556L81.6314 77.568ZM78.054 77.4306C78.489 77.4318 78.9113 77.5768 79.2545 77.8427C79.4114 77.944 79.5456 78.0763 79.6489 78.2314C79.7521 78.3866 79.8222 78.5612 79.8547 78.7445H76.1033C76.3494 77.8666 76.9916 77.4426 78.048 77.4426" fill="#F7A600"/>
    <path d="M62.2028 72.3711C61.9653 72.3711 61.7331 72.4411 61.5357 72.5724C61.3382 72.7036 61.1843 72.8902 61.0934 73.1084C61.0025 73.3267 60.9787 73.5668 61.025 73.7985C61.0714 74.0302 61.1857 74.243 61.3537 74.4101C61.5216 74.5771 61.7356 74.6909 61.9686 74.7369C62.2015 74.783 62.443 74.7594 62.6624 74.669C62.8818 74.5786 63.0694 74.4255 63.2013 74.2291C63.3333 74.0326 63.4037 73.8017 63.4037 73.5655C63.4037 73.2487 63.2772 72.9449 63.052 72.7209C62.8268 72.4969 62.5213 72.3711 62.2028 72.3711Z" fill="#F7A600"/>
    <path d="M46.9201 79.115C46.9311 78.6472 47.1257 78.2021 47.4622 77.8751C47.7987 77.5481 48.2505 77.3651 48.7208 77.3652C48.9009 77.3652 49.2731 77.4608 49.5432 77.4787C49.7985 77.4818 50.0454 77.3878 50.2334 77.2159C50.3385 77.113 50.4202 76.9888 50.473 76.8518C50.5258 76.7148 50.5485 76.5681 50.5395 76.4217C50.538 76.2826 50.5028 76.146 50.437 76.0233C50.3712 75.9007 50.2767 75.7956 50.1614 75.717C49.9098 75.5221 49.5977 75.4207 49.2791 75.4303C48.7631 75.4271 48.2527 75.5372 47.7845 75.7528C47.4655 75.8944 47.1779 76.0973 46.9382 76.35C46.9004 76.1537 46.8018 75.974 46.6561 75.8364C46.5532 75.7383 46.4318 75.6614 46.2989 75.6101C46.166 75.5589 46.0242 75.5343 45.8818 75.5378C45.7397 75.5332 45.598 75.5567 45.4651 75.6069C45.3322 75.6571 45.2106 75.7331 45.1075 75.8304C45.0071 75.9272 44.9277 76.0433 44.874 76.1716C44.8203 76.3 44.7935 76.4379 44.7953 76.5769V82.6684C44.7913 82.8071 44.8165 82.9452 44.8692 83.0738C44.9219 83.2023 45.001 83.3185 45.1015 83.4149C45.2028 83.5155 45.3238 83.5944 45.457 83.6467C45.5901 83.6991 45.7326 83.7238 45.8758 83.7194C46.0182 83.7229 46.16 83.6984 46.2929 83.6471C46.4258 83.5959 46.5472 83.519 46.65 83.4208C46.7513 83.3248 46.8313 83.2088 46.885 83.0802C46.9388 82.9517 46.965 82.8135 46.9622 82.6743L46.9201 79.115Z" fill="#F7A600"/>
    <path d="M28.6254 4.67911C28.7201 4.76827 28.794 4.8771 28.8417 4.99786C28.8894 5.11861 28.9098 5.24835 28.9015 5.37784V11.8276C28.9051 11.9521 28.8823 12.076 28.8348 12.1912C28.7872 12.3064 28.7159 12.4104 28.6254 12.4964C28.4372 12.6719 28.1869 12.7664 27.9291 12.7592C27.803 12.7642 27.6773 12.7434 27.5596 12.6982C27.442 12.6531 27.3348 12.5844 27.2448 12.4964C27.1553 12.4118 27.0841 12.3099 27.0356 12.197C26.9871 12.084 26.9623 11.9624 26.9627 11.8395C26.6542 12.1636 26.2825 12.4216 25.8703 12.598C25.4136 12.8023 24.9185 12.9082 24.4177 12.9085C23.7094 12.913 23.0134 12.7238 22.4058 12.3615C21.7982 11.9992 21.3024 11.4778 20.9724 10.8542C20.6138 10.184 20.434 9.43345 20.4502 8.67438C20.4377 7.91189 20.6172 7.15842 20.9724 6.48265C21.2948 5.85974 21.7854 5.33858 22.389 4.97771C22.9855 4.6173 23.6719 4.43105 24.3697 4.44023C24.8612 4.43041 25.35 4.5135 25.8103 4.68508C26.2316 4.84846 26.6214 5.0828 26.9627 5.37784C26.9596 5.25428 26.9826 5.13144 27.0301 5.01726C27.0777 4.90308 27.1488 4.80009 27.2388 4.71494C27.3299 4.62684 27.4381 4.55811 27.5568 4.51294C27.6755 4.46776 27.8021 4.44709 27.9291 4.45218C28.0565 4.44686 28.1836 4.46682 28.3032 4.51091C28.4227 4.555 28.5322 4.62233 28.6254 4.70897V4.67911ZM26.3685 10.5137C26.8166 10.0033 27.047 9.33918 27.0107 8.66243C27.0348 7.98971 26.7985 7.33346 26.3505 6.82903C26.1316 6.59765 25.8675 6.41328 25.5743 6.28725C25.2812 6.16122 24.9652 6.09621 24.6458 6.09621C24.3265 6.09621 24.0105 6.16122 23.7173 6.28725C23.4242 6.41328 23.1601 6.59765 22.9412 6.82903C22.4925 7.33104 22.2541 7.98497 22.2749 8.65646C22.2485 9.32562 22.4804 9.97948 22.9232 10.4839C23.1466 10.7096 23.4129 10.8888 23.7066 11.0112C24.0002 11.1335 24.3154 11.1965 24.6338 11.1965C24.9522 11.1965 25.2674 11.1335 25.5611 11.0112C25.8548 10.8888 26.1211 10.7096 26.3445 10.4839" fill="white"/>
    <path d="M38.5472 1.72419C38.6369 1.81054 38.7074 1.91473 38.7539 2.02998C38.8004 2.14523 38.822 2.26894 38.8173 2.39305V11.8228C38.8204 11.9464 38.7975 12.0692 38.7499 12.1834C38.7023 12.2976 38.6312 12.4006 38.5412 12.4857C38.4489 12.5742 38.3397 12.6436 38.2202 12.6897C38.1007 12.7358 37.9731 12.7579 37.8449 12.7545C37.72 12.7593 37.5953 12.7391 37.4783 12.6952C37.3613 12.6513 37.2543 12.5845 37.1637 12.4987C37.0731 12.413 37.0006 12.3101 36.9506 12.1961C36.9006 12.082 36.8741 11.9592 36.8726 11.8348C36.5663 12.16 36.1939 12.4165 35.7801 12.5872C35.3274 12.7972 34.8331 12.9033 34.3336 12.8978C33.6217 12.9072 32.9212 12.7191 32.3108 12.3543C31.7076 11.9892 31.2142 11.4694 30.8823 10.8494C30.5264 10.1782 30.3467 9.42838 30.3601 8.66961C30.3528 7.9077 30.532 7.15547 30.8823 6.47789C31.2082 5.8575 31.698 5.33721 32.2988 4.97295C32.8967 4.60996 33.5852 4.42164 34.2856 4.4295C34.7827 4.43069 35.2752 4.52384 35.7381 4.70421C36.1543 4.85882 36.5387 5.08749 36.8726 5.37905V2.39305C36.8687 2.26939 36.8913 2.14633 36.9389 2.03204C36.9865 1.91774 37.058 1.81484 37.1487 1.73016C37.2406 1.6411 37.3496 1.57139 37.4693 1.52522C37.5889 1.47904 37.7167 1.45734 37.8449 1.46142C38.1028 1.45427 38.353 1.54871 38.5412 1.72419H38.5472ZM36.2783 10.503C36.7239 9.99914 36.9618 9.34649 36.9446 8.67559C36.9647 8.00529 36.7288 7.35232 36.2843 6.84816C36.0698 6.60801 35.8048 6.41773 35.5082 6.2908C35.2115 6.16386 34.8904 6.10337 34.5677 6.1136C34.248 6.10238 33.9298 6.16191 33.636 6.2879C33.3423 6.4139 33.0803 6.60322 32.869 6.84219C32.4182 7.34291 32.1794 7.99774 32.2028 8.66961C32.1786 9.33949 32.4127 9.99322 32.857 10.497C33.0701 10.7351 33.3333 10.9233 33.628 11.0482C33.9227 11.1731 34.2416 11.2317 34.5617 11.2197C34.883 11.2317 35.2031 11.1738 35.4996 11.0501C35.7961 10.9263 36.0619 10.7396 36.2783 10.503Z" fill="white"/>
    <path d="M48.4741 10.8826C48.0937 11.5213 47.5404 12.0408 46.8775 12.3816C46.1944 12.743 45.4302 12.9259 44.6567 12.9131C43.8788 12.9238 43.1108 12.7389 42.4238 12.3756C41.7588 12.0306 41.2022 11.5099 40.8152 10.8707C40.4171 10.2086 40.2094 9.45046 40.215 8.67897C40.209 7.9093 40.4167 7.15293 40.8152 6.49322C41.2037 5.84943 41.7649 5.32619 42.4358 4.98231C43.123 4.62443 43.8871 4.4375 44.6627 4.4375C45.4383 4.4375 46.2024 4.62443 46.8895 4.98231C47.5501 5.32964 48.1008 5.85272 48.4801 6.49322C48.8797 7.15467 49.0874 7.91325 49.0804 8.68494C49.0845 9.45437 48.8769 10.2103 48.4801 10.8707L48.4741 10.8826ZM46.8175 7.35916C46.6129 6.98004 46.3077 6.66401 45.9352 6.44545C45.5573 6.23504 45.1317 6.12404 44.6987 6.12296C44.2628 6.11623 43.8333 6.22771 43.4562 6.44545C43.0825 6.65916 42.7751 6.97116 42.5679 7.34722C42.3405 7.75635 42.2247 8.2175 42.2317 8.68494C42.2224 9.1481 42.3363 9.60548 42.5619 10.0107C42.7713 10.3851 43.0782 10.6966 43.4502 10.9125C43.7297 11.0766 44.0392 11.1836 44.3607 11.2273C44.6822 11.2711 45.0092 11.2506 45.3227 11.1673C45.6362 11.0839 45.9298 10.9392 46.1864 10.7416C46.4431 10.5441 46.6576 10.2976 46.8175 10.0167C47.0444 9.61198 47.1584 9.15423 47.1476 8.69091C47.1569 8.22587 47.043 7.76659 46.8175 7.35916Z" fill="white"/>
    <path d="M57.0219 5.01472C57.6289 5.3751 58.1235 5.8961 58.4504 6.51967C58.8063 7.19087 58.986 7.94068 58.9726 8.69944C58.9844 9.46185 58.8049 10.2151 58.4504 10.8912C58.1295 11.511 57.642 12.0301 57.0423 12.3906C56.4425 12.7512 55.7539 12.9392 55.0532 12.9336C54.5496 12.935 54.051 12.8333 53.5886 12.635C53.1699 12.4612 52.7857 12.2145 52.4542 11.9064V14.8924C52.4558 15.0158 52.4322 15.1382 52.3847 15.2521C52.3373 15.3661 52.2669 15.4693 52.1781 15.5553C51.9872 15.7269 51.7391 15.822 51.4818 15.822C51.2245 15.822 50.9764 15.7269 50.7855 15.5553C50.6941 15.4699 50.6221 15.3661 50.5745 15.2507C50.5269 15.1353 50.5047 15.0111 50.5094 14.8864V5.52831C50.5063 5.40476 50.5293 5.28192 50.5768 5.16774C50.6244 5.05356 50.6955 4.95057 50.7855 4.86542C50.9737 4.68994 51.224 4.59551 51.4818 4.60266C51.6179 4.59426 51.7542 4.61497 51.8815 4.66339C52.0089 4.7118 52.1243 4.7868 52.2201 4.88334C52.3082 4.96966 52.3776 5.073 52.424 5.187C52.4705 5.301 52.493 5.42325 52.4902 5.54623V5.60595C52.784 5.26441 53.1431 4.98429 53.5466 4.78182C53.9995 4.557 54.499 4.44044 55.0051 4.44141C55.7177 4.4433 56.4159 4.64176 57.0219 5.01472ZM56.4217 10.5269C56.8704 10.0249 57.1088 9.37093 57.0879 8.69944C57.1144 8.03028 56.8824 7.37642 56.4397 6.87201C56.2163 6.64631 55.95 6.46707 55.6563 6.34472C55.3626 6.22237 55.0474 6.15937 54.729 6.15937C54.4106 6.15937 54.0954 6.22237 53.8018 6.34472C53.5081 6.46707 53.2418 6.64631 53.0184 6.87201C52.5762 7.36366 52.3381 8.004 52.3521 8.66361C52.3281 9.33633 52.5644 9.99258 53.0124 10.497C53.2312 10.7284 53.4954 10.9128 53.7885 11.0388C54.0817 11.1648 54.3977 11.2298 54.717 11.2298C55.0364 11.2298 55.3523 11.1648 55.6455 11.0388C55.9387 10.9128 56.2028 10.7284 56.4217 10.497" fill="white"/>
    <path d="M65.0107 11.2781C65.0912 11.3723 65.1483 11.4841 65.1774 11.6043C65.2065 11.7246 65.2067 11.8499 65.1781 11.9702C65.1494 12.0906 65.0927 12.2025 65.0126 12.2971C64.9324 12.3916 64.831 12.466 64.7166 12.5143C64.3915 12.7049 64.0196 12.8021 63.6422 12.795C63.0516 12.8134 62.4669 12.6731 61.9496 12.3889C61.4934 12.1182 61.2653 11.5449 61.2653 10.669V6.48857H60.521C60.2809 6.49567 60.0477 6.4076 59.8728 6.24372C59.7905 6.16745 59.725 6.07496 59.6805 5.97215C59.6361 5.86933 59.6137 5.75843 59.6147 5.64652C59.6109 5.53422 59.6321 5.42248 59.6767 5.31926C59.7214 5.21604 59.7883 5.12387 59.8728 5.04932C60.0486 4.87657 60.2859 4.77997 60.533 4.78058H61.2773V3.80714C61.2737 3.68242 61.2977 3.55843 61.3475 3.44391C61.3972 3.32938 61.4716 3.2271 61.5654 3.14425C61.6585 3.05501 61.7686 2.98525 61.8892 2.93909C62.0098 2.89293 62.1385 2.87131 62.2677 2.87551C62.3931 2.87249 62.5179 2.89474 62.6344 2.94092C62.751 2.98711 62.857 3.05627 62.946 3.14425C63.0348 3.23028 63.1052 3.33343 63.1526 3.4474C63.2001 3.56138 63.2237 3.68378 63.2221 3.80714V4.78058H63.9723C64.0913 4.7764 64.21 4.79591 64.3213 4.83796C64.4326 4.88 64.5344 4.94374 64.6206 5.02543C64.7035 5.10123 64.7694 5.19363 64.8139 5.29656C64.8583 5.39948 64.8804 5.51061 64.8787 5.62263C64.8816 5.73482 64.86 5.8463 64.8155 5.9494C64.7709 6.0525 64.7044 6.14476 64.6206 6.21983C64.4421 6.37664 64.2103 6.45993 63.9723 6.45274H63.2221V10.5854C63.2132 10.6711 63.2243 10.7577 63.2545 10.8385C63.2846 10.9193 63.3331 10.992 63.3961 11.0512C63.5368 11.1532 63.7085 11.2038 63.8823 11.1945C64.0025 11.19 64.1215 11.1699 64.2364 11.1348C64.3554 11.0896 64.4813 11.0654 64.6086 11.0631C64.6883 11.0652 64.7665 11.0845 64.838 11.1195C64.9095 11.1546 64.9725 11.2046 65.0227 11.2662" fill="white"/>
</svg>
