<svg width="114" height="54" viewBox="0 0 114 54" fill="none" xmlns="http://www.w3.org/2000/svg">
    <g clip-path="url(#clip0_75_1473)">
        <path d="M112.744 48.982C112.744 51.4358 111.12 53.1501 108.803 53.1501C108.377 53.1488 107.954 53.0947 107.541 52.989C90.935 48.7844 73.8905 46.64 56.7787 46.6026C39.6643 46.6376 22.617 48.7806 6.00849 52.9849C5.5957 53.0902 5.1719 53.1443 4.74634 53.146C2.42901 53.146 0.805664 51.4316 0.805664 48.9779V22.1269C0.813781 19.1361 3.13517 16.1164 6.00849 15.4017C16.9146 12.6664 28.0165 10.8155 39.21 9.86629L39.628 9.81258L39.835 9.39949C42.6272 4.15735 49.149 0.613021 56.454 0.402344H56.6732H56.9289H57.0993C64.4044 0.60889 70.9302 4.15735 73.7143 9.43254L73.9253 9.84563L74.3636 9.88281C85.5571 10.8322 96.659 12.6831 107.565 15.4182C110.406 16.1329 112.744 19.1361 112.744 22.1434V48.9944V48.982Z" fill="white"/>
        <path d="M107.509 14.6647C96.7085 12.0042 85.7157 10.1974 74.632 9.26105C71.6483 3.95809 65.0488 0.374469 57.644 0.0281858V0H56.4723H55.969C48.5803 0.374469 41.9808 3.95809 38.9971 9.26105C27.9121 10.1972 16.9179 12.0039 6.11632 14.6647C2.7461 15.4982 0 19.0013 0 22.4721V48.6447C0 51.7451 2.18641 53.996 5.19827 53.996C5.72507 53.9932 6.24962 53.9269 6.76057 53.7987C23.1349 49.7271 39.9417 47.6518 56.8146 47.6179C73.6876 47.6533 90.4944 49.7299 106.869 53.8027C107.379 53.9311 107.904 53.9973 108.431 54C111.443 54 113.625 51.7492 113.629 48.6487V22.4762C113.629 19.0013 110.887 15.4982 107.509 14.6647ZM112.341 48.6487C112.341 51.0405 110.73 52.7115 108.431 52.7115C108.009 52.7102 107.588 52.6575 107.179 52.5545C90.703 48.4561 73.7922 46.3659 56.8146 46.3294C39.8344 46.3636 22.9207 48.4524 6.44247 52.5504C6.03291 52.6531 5.61244 52.7058 5.19022 52.7075C2.89106 52.7075 1.28044 51.0365 1.28044 48.6447V22.4721C1.28849 19.5569 3.59168 16.6135 6.44247 15.9169C17.263 13.2508 28.2779 11.4466 39.3836 10.5214L39.7984 10.469L40.0037 10.0664C42.774 4.95668 49.2446 1.5019 56.4924 1.29655H56.7099H56.9635H57.1326C64.3804 1.49787 70.8551 4.95668 73.6173 10.0986L73.8267 10.5012L74.2616 10.5375C85.3673 11.4629 96.3821 13.267 107.203 15.933C110.021 16.6296 112.341 19.5569 112.341 22.4883V48.6608V48.6487Z" fill="#182856"/>
        <path d="M6.07127 20.1602C18.4892 16.8224 31.2088 14.7303 44.0416 13.915C43.8765 14.1727 43.7195 14.4344 43.5745 14.7203C30.8991 15.5517 18.3369 17.6342 6.07127 20.9373V20.1602ZM107.625 20.1602C94.5945 16.6616 81.2344 14.5334 67.762 13.8103C67.927 14.068 68.0841 14.3257 68.2331 14.5915C81.5476 15.3398 94.7488 17.4665 107.625 20.9373V20.1602ZM42.8981 42.5317C43.0638 42.5362 43.2287 42.5057 43.3819 42.4422C43.5351 42.3788 43.6731 42.2837 43.7871 42.1633C43.9011 42.0428 43.9884 41.8997 44.0434 41.7432C44.0983 41.5868 44.1197 41.4205 44.106 41.2552C44.106 40.3654 43.5826 40.0916 42.8457 40.1399L41.8109 40.2083V44.2349L42.286 44.2027V42.5558L42.8981 42.5317ZM42.8618 40.6029C42.9563 40.5896 43.0526 40.5975 43.1437 40.626C43.2348 40.6544 43.3184 40.7028 43.3885 40.7675C43.4587 40.8322 43.5135 40.9117 43.5492 41.0003C43.5848 41.0888 43.6003 41.1841 43.5946 41.2794C43.6063 41.3832 43.5954 41.4883 43.5627 41.5875C43.53 41.6867 43.4763 41.7776 43.4052 41.8541C43.334 41.9306 43.2472 41.9908 43.1506 42.0306C43.0541 42.0704 42.9501 42.0888 42.8457 42.0847L42.2739 42.125V40.6593L42.8618 40.6029ZM47.9554 43.8886L48.5674 43.8604L47.44 42.1451C47.6853 42.0833 47.9025 41.9401 48.056 41.739C48.2096 41.538 48.2905 41.2908 48.2856 41.0378C48.2856 40.0956 47.6776 39.8621 46.981 39.8943L46.071 39.9345V43.9611L46.5501 43.9369V42.278H46.9165L47.9554 43.8886ZM47.0414 40.3573C47.14 40.3399 47.2414 40.3461 47.3373 40.3753C47.4332 40.4044 47.5208 40.4559 47.593 40.5253C47.6652 40.5948 47.72 40.6804 47.7529 40.775C47.7858 40.8697 47.7958 40.9707 47.7822 41.07C47.7864 41.1744 47.7679 41.2784 47.7281 41.375C47.6883 41.4715 47.6281 41.5583 47.5516 41.6295C47.4751 41.7006 47.3842 41.7544 47.285 41.7871C47.1858 41.8198 47.0807 41.8307 46.9769 41.819H46.5743V40.3614L47.0414 40.3573ZM50.4921 43.796L52.6906 43.7396V43.2846L50.9713 43.3289V41.9398L52.453 41.9035V41.4324L50.9713 41.4687V40.2204L52.6826 40.1761V39.7091L50.4961 39.7654V43.792L50.4921 43.796ZM57.7399 43.6994H58.2191V39.6728H57.6553L56.4715 41.2834L55.2636 39.6728H54.6918V43.6994H55.171V40.3412H55.1911L56.4433 41.98L57.6956 40.3372V43.6953L57.7399 43.6994ZM60.5182 43.7316H60.9974V39.705H60.5182V43.7316ZM63.2683 42.121C63.2683 43.2685 63.973 43.8685 64.7904 43.9007C65.6078 43.9329 66.3003 43.3853 66.3003 42.2377V39.8621H65.8212V42.1934C65.8212 42.9544 65.4548 43.49 64.7904 43.4658C64.126 43.4417 63.7515 42.8779 63.7515 42.1169V39.7815H63.2724V42.1693L63.2683 42.121ZM71.5791 44.2429L72.0583 44.2752V40.2486L71.4986 40.2124L70.3148 41.7344L69.127 40.0553L68.5552 40.0191V44.0456L69.0343 44.0779V40.7197H69.0545L70.3027 42.439L71.5509 40.8808V44.2429H71.5791ZM6.06725 48.0198V48.801C16.5141 45.9796 27.1809 44.0467 37.9535 43.0229V42.2619C27.1821 43.2821 16.5158 45.2069 6.06725 48.0158V48.0198ZM107.621 48.0158C97.1723 45.2073 86.5058 43.2839 75.7345 42.2659V43.0229C86.5072 44.046 97.174 45.9789 107.621 48.801V48.0198V48.0158ZM60.2283 36.5724C61.7302 36.5724 61.7745 35.8114 61.7745 35.0181V29.7152C61.7745 29.3608 61.8631 29.2722 62.2174 29.2722H62.6201C63.4254 29.2722 64.1663 29.2199 64.1663 27.718V26.0349C64.1663 25.2296 64.122 24.4887 62.6201 24.4968H62.2174C61.8631 24.4968 61.7745 24.4122 61.7745 24.0579V7.18664C61.7745 6.38133 61.7302 5.64045 60.2283 5.6485H57.3131C56.4756 5.6485 56.0326 5.78943 55.5897 6.63098L46.4011 23.6633C46.1118 24.0664 45.939 24.5415 45.9019 25.0363V27.8187C45.9019 29.3206 46.6548 29.3608 47.448 29.3568L55.3119 29.3125C55.6662 29.3125 55.7548 29.3125 55.7548 29.7514V35.0302C55.7548 35.8355 55.7991 36.5764 57.301 36.5683L60.2283 36.5724ZM52.3443 24.5612C52.1672 24.5612 51.9417 24.5612 51.9417 24.2552C51.9417 23.8123 52.4692 23.2807 54.108 19.9105C55.0784 17.8731 55.3159 17.1201 55.5656 17.1201C55.8152 17.1201 55.7427 17.2973 55.7427 17.4704V24.0498C55.7427 24.3599 55.787 24.533 55.2555 24.5411L52.3443 24.5612ZM12.852 37.9535C12.8562 37.8953 12.8451 37.837 12.8198 37.7844L12.0145 35.9644C12.0065 35.9306 11.9875 35.9004 11.9605 35.8786C11.9336 35.8567 11.9002 35.8444 11.8655 35.8436C11.7165 35.8798 10.9233 36.9549 9.88038 37.2166C8.97039 37.4461 8.17716 36.7576 8.17716 33.5927C8.17716 31.1768 8.88985 30.303 9.65087 30.1098C10.4119 29.9165 11.1447 30.3876 11.6762 30.5205C11.72 30.5296 11.7653 30.5296 11.8091 30.5205C11.8524 30.506 11.8915 30.4811 11.923 30.4482C11.9546 30.4152 11.9777 30.3751 11.9903 30.3312L12.7956 28.0884C12.8124 28.0334 12.8232 27.9767 12.8278 27.9193C12.8262 27.8596 12.8065 27.8019 12.7712 27.7537C12.736 27.7055 12.6869 27.6692 12.6305 27.6495C11.8695 27.1462 10.6172 27.0375 9.57034 27.3033C8.2469 27.6512 7.09065 28.4592 6.30884 29.5823C5.27402 31.0037 4.92773 32.6143 4.92773 34.7483C4.92773 38.7749 6.44977 40.8888 9.65892 40.0795C10.6857 39.8218 12.852 38.6702 12.852 37.9575V37.9535ZM21.199 34.5953C21.2067 34.5406 21.2067 34.485 21.199 34.4303C21.199 34.2168 21.0983 34.2007 20.8648 34.2491L17.1845 35.0302V26.2282C17.1845 25.9262 17.1161 25.8859 16.8342 25.9463L14.2935 26.4698C13.9754 26.5342 13.9432 26.5946 13.9432 26.8966V38.3602C13.9432 38.6984 13.9754 38.7266 14.2935 38.6621L20.5346 37.3777C20.5834 37.3804 20.6323 37.3724 20.6777 37.3542C20.723 37.336 20.7639 37.308 20.7973 37.2723C20.8307 37.2366 20.8559 37.194 20.871 37.1475C20.8861 37.101 20.8909 37.0517 20.8849 37.0032L21.199 34.5953ZM26.6509 36.6408C29.5178 36.1979 31.4385 34.5108 31.4385 31.3298V23.7559C31.4385 23.4539 31.4063 23.4056 31.0842 23.4579L28.6038 23.8606C28.3179 23.9049 28.2656 23.9653 28.2656 24.2632V31.6922C28.2656 33.1498 27.8106 33.7377 26.8321 33.8867C25.8537 34.0357 25.5356 33.7135 25.5356 32.0989V24.686C25.5356 24.384 25.5356 24.3317 25.1974 24.384L22.6163 24.7867C22.2942 24.835 22.262 24.8954 22.262 25.1893V32.9082C22.262 35.6986 23.3411 37.1683 26.6469 36.6529L26.6509 36.6408ZM39.2742 34.5873C40.6996 34.088 41.67 32.4814 41.67 30.9151C41.7097 30.3376 41.5526 29.7636 41.2243 29.2868C40.8959 28.8101 40.4158 28.4586 39.862 28.2898C40.3085 28.0255 40.6743 27.6443 40.9198 27.1873C41.1653 26.7303 41.2813 26.2148 41.2552 25.6967C41.2662 25.2496 41.1809 24.8053 41.0051 24.394C40.8293 23.9828 40.5672 23.6141 40.2365 23.313C39.5077 22.709 38.7588 22.6446 36.9066 22.8298L33.5605 23.168C33.2384 23.2002 33.2021 23.2566 33.2021 23.5707V35.0302C33.2021 35.3684 33.2384 35.4006 33.5605 35.3684L37.0596 35.0141C37.8104 34.9851 38.5534 34.8495 39.2661 34.6114L39.2742 34.5873ZM37.0435 25.2699C38.0098 25.1732 38.2514 25.5034 38.2514 26.2886C38.2514 27.0738 37.9454 27.5288 37.1159 27.6133L36.4193 27.6818V25.3303L37.0435 25.2699ZM36.9669 29.9688C38.3601 29.8279 38.5776 30.2145 38.5776 31.0681C38.5776 31.817 38.2716 32.3083 37.0998 32.425L36.4032 32.4935V30.0252L36.9629 29.9688H36.9669ZM72.924 30.1017C75.4728 30.3111 77.1599 28.7971 77.1599 26.3248C77.1733 25.2989 76.7945 24.3066 76.1009 23.5505C75.3842 22.8499 74.4501 22.5801 72.7992 22.4432L69.4652 22.1694C69.1431 22.1412 69.1068 22.1694 69.1068 22.4956V33.9632C69.1068 34.3014 69.139 34.3376 69.4652 34.3658L72.0502 34.5792C72.3401 34.6034 72.4086 34.5792 72.4086 34.237V30.0574L72.9361 30.1017H72.924ZM72.8797 24.9397C73.7293 25.0081 74.1883 25.3423 74.1883 26.2564C74.1883 27.1704 73.8501 27.5811 72.7951 27.4925L72.3925 27.4603V24.9034L72.8676 24.9437L72.8797 24.9397ZM86.582 35.9724C86.5768 35.8992 86.566 35.8265 86.5498 35.755L82.9944 23.8445C82.8937 23.5465 82.8776 23.5264 82.5917 23.4942L80.0711 23.1761C79.7852 23.1398 79.7651 23.1761 79.6966 23.4338L76.1573 34.4544C76.1204 34.5303 76.0972 34.6121 76.0889 34.696C76.0889 34.8007 76.1734 34.8853 76.4432 34.9175L79.0846 35.2476C79.3544 35.2799 79.3544 35.2476 79.4389 34.9899L80.1315 32.5337L82.3501 32.8116L82.9944 35.4329C83.0628 35.7268 83.0789 35.7469 83.3689 35.7832L86.2277 36.1415C86.4814 36.1737 86.5659 36.1415 86.5659 35.9724H86.582ZM81.875 30.3353L80.5301 30.1984L80.969 28.1851C81.0697 27.6818 81.1905 26.7557 81.2549 26.196C81.3234 26.7395 81.4764 27.7542 81.5609 28.2616L81.875 30.3353ZM99.5556 27.0134C99.5719 26.9391 99.5827 26.8637 99.5878 26.7879C99.5827 26.7156 99.5503 26.6479 99.4972 26.5986C99.4442 26.5493 99.3743 26.5219 99.3019 26.5221L96.886 25.7933C96.821 25.7676 96.7535 25.7487 96.6846 25.7369C96.5679 25.7168 96.4994 25.7369 96.4672 25.9987L95.6941 30.9594C95.6257 31.3902 95.5451 32.3727 95.4082 33.5364C95.3076 32.3284 95.2914 31.3822 95.1747 30.8426L94.168 25.7692C94.0996 25.4551 94.0835 25.4148 93.8016 25.3665L91.7521 24.9638C91.4662 24.9115 91.434 24.9397 91.3817 25.1974L90.3428 29.9648C90.2261 30.4923 90.2261 31.2573 90.1093 32.4653C90.0247 31.2573 89.9241 30.3876 89.8395 29.8561L89.0342 24.6216C88.9818 24.3639 88.9496 24.3035 88.849 24.2874C88.7775 24.2722 88.7046 24.2641 88.6315 24.2632L86.1673 24.0619C85.9338 24.0377 85.8653 24.0941 85.8653 24.2189C85.8699 24.2988 85.8807 24.3783 85.8975 24.4565L88.2812 36.3992C88.3497 36.6972 88.3497 36.7133 88.6315 36.7656L90.9992 37.2045C91.2689 37.2529 91.3011 37.2448 91.3696 36.971L92.4769 32.0747C92.5937 31.5996 92.6782 30.3191 92.7628 29.4615C92.8312 30.3634 92.9319 31.66 93.0164 32.1391L93.9828 37.4461C93.9786 37.4989 93.9863 37.5519 94.0054 37.6012C94.0246 37.6505 94.0547 37.6949 94.0934 37.7309C94.1322 37.767 94.1786 37.7937 94.2292 37.8093C94.2797 37.8248 94.3332 37.8287 94.3855 37.8206L96.737 38.2514C96.9866 38.2998 97.039 38.2716 97.1074 38.0179L99.5556 27.0134ZM103.985 39.9426C106.437 40.5466 108.092 39.4111 108.092 37.0475C108.092 34.6839 106.481 33.4639 104.548 32.0506C103.638 31.3822 103.304 31.0842 103.304 30.605C103.304 30.1259 103.57 29.9407 104.347 30.1339C105.124 30.3272 106.236 31.0963 106.88 31.5754C106.921 31.6033 106.966 31.6263 107.013 31.6439C107.043 31.6486 107.073 31.6416 107.098 31.6244C107.123 31.6071 107.14 31.5809 107.146 31.5513L107.858 29.6467C107.867 29.6192 107.867 29.5897 107.858 29.5622C107.858 28.9582 105.752 27.7261 104.234 27.3556C101.782 26.7516 100.143 27.714 100.143 29.989C100.143 32.0022 101.303 32.9928 102.962 34.241C104.621 35.4892 104.975 35.7308 104.975 36.4959C104.975 37.0274 104.645 37.3012 103.949 37.1321C102.847 36.7623 101.832 36.1734 100.965 35.4006C100.924 35.3575 100.873 35.3256 100.816 35.308C100.797 35.3033 100.777 35.3027 100.758 35.3065C100.739 35.3102 100.721 35.3181 100.705 35.3297C100.689 35.3412 100.676 35.3561 100.667 35.3732C100.657 35.3903 100.652 35.4093 100.651 35.4288L100.055 37.5548C100.047 37.5893 100.047 37.6251 100.055 37.6595C100.055 38.3521 102.805 39.6728 103.965 39.9386" fill="#182856"/>
    </g>
    <defs>
        <clipPath id="clip0_75_1473">
            <rect width="113.629" height="54" fill="white"/>
        </clipPath>
    </defs>
</svg>
